<svg width="23" height="25" viewBox="0 0 23 25" fill="none" xmlns="http://www.w3.org/2000/svg">
<path d="M10.4419 2.89244V2.28097H9.83043H3.71571C3.22846 2.28097 2.76163 2.47526 2.41778 2.82038C2.07401 3.16542 1.88129 3.63292 1.88129 4.11991V21.3045C1.88129 21.7915 2.07401 22.259 2.41778 22.604C2.76163 22.9491 3.22846 23.1434 3.71571 23.1434H12.2763C12.4378 23.1434 12.593 23.2078 12.7079 23.323C12.8228 23.4384 12.8878 23.5953 12.8878 23.7594C12.8878 23.9235 12.8228 24.0805 12.7079 24.1958C12.593 24.3111 12.4378 24.3754 12.2763 24.3754H3.71571C2.90557 24.3754 2.12817 24.0524 1.55462 23.4768C0.981007 22.901 0.658347 22.1197 0.658347 21.3045V4.11991C0.658347 3.30472 0.981007 2.52337 1.55462 1.94763C2.12817 1.37197 2.90558 1.04897 3.71571 1.04897H11.059C11.1137 1.06353 11.1666 1.08442 11.2167 1.11129L11.4032 1.2114L11.4867 1.19672C11.507 1.21169 11.5264 1.22779 11.545 1.24493L18.8675 8.59453C18.8899 8.61893 18.9104 8.64487 18.9291 8.67215V8.72444L18.9608 8.819C18.98 8.87617 18.9939 8.93497 19.0025 8.99467V8.99493V8.99519V8.99545V8.99571V8.99597V8.99623V8.99648V8.99673V8.99699V8.99724V8.99749V8.99774V8.99798V8.99823V8.99847V8.99872V8.99896V8.9992V8.99944V8.99968V8.99992V9.00015V9.00039V9.00062V9.00085V9.00108V9.00131V9.00154V9.00177V9.00199V9.00222V9.00244V9.00266V9.00288V9.00311V9.00332V9.00354V9.00376V9.00397V9.00419V9.0044V9.00461V9.00482V9.00503V9.00524V9.00545V9.00565V9.00586V9.00606V9.00626V9.00646V9.00666V9.00686V9.00706V9.00726V9.00745V9.00765V9.00784V9.00803V9.00822V9.00841V9.0086V9.00879V9.00897V9.00916V9.00934V9.00953V9.00971V9.00989V9.01007V9.01025V9.01042V9.0106V9.01078V9.01095V9.01112V9.0113V9.01147V9.01164V9.01181V9.01198V9.01214V9.01231V9.01247V9.01264V9.0128V9.01296V9.01312V9.01328V9.01344V9.0136V9.01376V9.01391V9.01407V9.01422V9.01437V9.01452V9.01467V9.01482V9.01497V9.01512V9.01527V9.01541V9.01556V9.0157V9.01584V9.01599V9.01613V9.01627V9.01641V9.01654V9.01668V9.01682V9.01695V9.01709V9.01722V9.01735V9.01748V9.01761V9.01774V9.01787V9.018V9.01813V9.01825V9.01838V9.0185V9.01862V9.01875V9.01887V9.01899V9.01911V9.01923V9.01934V9.01946V9.01958V9.01969V9.01981V9.01992V9.02003V9.02014V9.02026V9.02036V9.02047V9.02058V9.02069V9.0208V9.0209V9.02101V9.02111V9.02121V9.02132V9.02142V9.02152V9.02162V9.02172V9.02182V9.02191V9.02201V9.02211V9.0222V9.0223V9.02239V9.02248V9.02258V9.02267V9.02276V9.02285V9.02294V9.02302V9.02311V9.0232V9.02328V9.02337V9.02345V9.02354V9.02362V9.0237V9.02378V9.02387V9.02395V9.02402V9.0241V9.02418V9.02426V9.02433V9.02441V9.02449V9.02456V9.02463V9.02471V9.02478V9.02485V9.02492V9.02499V9.02506V9.02513V9.0252V9.02527V9.02533V9.0254V9.02546V9.02553V9.02559V9.02566V9.02572V9.02578V9.02584V9.0259V9.02596V9.02602V9.02608V9.02614V9.0262V9.02626V9.02631V9.02637V9.02643V9.02648V9.02654V9.02659V9.02664V9.02669V9.02675V9.0268V9.02685V9.0269V9.02695V9.027V9.02705V9.02709V9.02714V9.02719V9.02723V9.02728V9.02732V9.02737V9.02741V9.02746V9.0275V9.02754V9.02758V9.02762V9.02767V9.02771V9.02775V9.02778V9.02782V9.02786V9.0279V9.02794V9.02797V9.02801V9.02805V9.02808V9.02812V9.02815V9.02818V9.02822V9.02825V9.02828V9.02832V9.02835V9.02838V9.02841V9.02844V9.02847V9.0285V9.02853V9.02855V9.02858V9.02861V9.02864V9.02866V9.02869V9.02872V9.02874V9.02877V9.02879V9.02882V9.02884V9.02886V9.02889V9.02891V9.02893V9.02895V9.02898V9.029V9.02902V9.02904V9.02906V9.02908V9.0291V9.02912V9.02914V9.02915V9.02917V9.02919V9.02921V9.02922V9.02924V9.02926V9.02927V9.02929V9.0293V9.02932V9.02933V9.02935V9.02936V9.02939V9.02942V9.02944V9.02946V9.02949V9.02951V9.02953V9.02955V9.02957V9.02958V9.0296V9.02962V9.02963V9.02965V9.02967V9.02969V9.0297V9.02972V9.02973V9.02975V9.02976V9.02979V12.7122C19.0025 12.8763 18.9375 13.0332 18.8226 13.1486C18.7078 13.2638 18.5525 13.3282 18.391 13.3282C18.2296 13.3282 18.0743 13.2638 17.9595 13.1486C17.8445 13.0332 17.7796 12.8763 17.7796 12.7122V10.2573V9.64579H17.1681H13.4993C12.6891 9.64579 11.9117 9.32279 11.3382 8.74713C10.7646 8.17139 10.4419 7.39004 10.4419 6.57485V2.89244ZM12.7095 4.1916L11.6648 3.14308V4.62317V6.57485C11.6648 7.06184 11.8576 7.52934 12.2013 7.87438C12.5452 8.21949 13.012 8.41379 13.4993 8.41379H15.4437H16.9161L15.8769 7.37074L12.7095 4.1916ZM21.2703 20.8628L21.2738 20.8663C21.3312 20.9235 21.3769 20.9916 21.4082 21.0668C21.4394 21.1421 21.4555 21.2228 21.4555 21.3045C21.4555 21.3861 21.4394 21.4669 21.4082 21.5421C21.3769 21.6173 21.3312 21.6855 21.2738 21.7426L21.272 21.7444L18.8317 24.1938C18.7743 24.2479 18.7072 24.2904 18.634 24.3189L18.6208 24.324L18.6078 24.3298C18.5394 24.3601 18.4656 24.3757 18.391 24.3757C18.3165 24.3757 18.2426 24.3601 18.1743 24.3298L18.1613 24.324L18.1481 24.3189C18.0749 24.2904 18.0078 24.248 17.9504 24.1938L15.51 21.7444C15.3942 21.6281 15.3287 21.4699 15.3287 21.3045C15.3287 21.1391 15.3942 20.9809 15.51 20.8646C15.6258 20.7483 15.7824 20.6835 15.9451 20.6835C16.1065 20.6835 16.2617 20.7472 16.3772 20.8615L16.7277 21.2254L17.7796 22.3176V20.8012V17.6221C17.7796 17.458 17.8445 17.3011 17.9595 17.1857C18.0743 17.0704 18.2296 17.0061 18.391 17.0061C18.5525 17.0061 18.7078 17.0704 18.8226 17.1857C18.9375 17.3011 19.0025 17.458 19.0025 17.6221V20.8012V22.3176L20.0544 21.2254L20.4059 20.8605C20.4623 20.8039 20.5292 20.7591 20.6025 20.7284C20.6769 20.6973 20.7565 20.6814 20.8369 20.6814C20.9173 20.6814 20.997 20.6973 21.0713 20.7284C21.1457 20.7595 21.2133 20.8051 21.2703 20.8628ZM5.73002 8.59341C5.84487 8.47814 6.00015 8.41379 6.16159 8.41379H7.38454C7.54598 8.41379 7.70127 8.47814 7.81612 8.59341C7.93104 8.70876 7.99601 8.86569 7.99601 9.02979C7.99601 9.19389 7.93104 9.35081 7.81612 9.46616C7.70127 9.58144 7.54598 9.64579 7.38454 9.64579H6.16159C6.00015 9.64579 5.84487 9.58144 5.73002 9.46616C5.61509 9.35081 5.55012 9.19389 5.55012 9.02979C5.55012 8.86569 5.61509 8.70876 5.73002 8.59341ZM5.73002 13.5033C5.84487 13.388 6.00015 13.3237 6.16159 13.3237H13.4993C13.6607 13.3237 13.816 13.388 13.9308 13.5033C14.0458 13.6186 14.1107 13.7756 14.1107 13.9397C14.1107 14.1038 14.0458 14.2607 13.9308 14.376C13.816 14.4913 13.6607 14.5557 13.4993 14.5557H6.16159C6.00015 14.5557 5.84487 14.4913 5.73002 14.376C5.61509 14.2607 5.55012 14.1038 5.55012 13.9397C5.55012 13.7756 5.61509 13.6186 5.73002 13.5033ZM11.4849 19.2859C11.3701 19.4012 11.2148 19.4655 11.0534 19.4655H6.16159C6.00015 19.4655 5.84486 19.4012 5.73002 19.2859C5.61509 19.1706 5.55012 19.0136 5.55012 18.8495C5.55012 18.6854 5.61509 18.5285 5.73002 18.4132C5.84486 18.2979 6.00015 18.2335 6.16159 18.2335H11.0534C11.2148 18.2335 11.3701 18.2979 11.4849 18.4132C11.5999 18.5285 11.6648 18.6854 11.6648 18.8495C11.6648 19.0136 11.5999 19.1706 11.4849 19.2859Z" stroke="#4D55BC" stroke-width="1.22294"/>
</svg>
