<svg width="48" height="48" viewBox="0 0 48 48" fill="none" xmlns="http://www.w3.org/2000/svg">
<path fill-rule="evenodd" clip-rule="evenodd" d="M24 48C37.2548 48 48 37.2548 48 24C48 10.7452 37.2548 0 24 0C10.7452 0 0 10.7452 0 24C0 37.2548 10.7452 48 24 48Z" fill="#0C96C4" fill-opacity="0.1"/>
<path fill-rule="evenodd" clip-rule="evenodd" d="M34 21H29.21L24.82 14.43C24.42 13.84 23.55 13.84 23.16 14.43L18.77 21H14C13.45 21 13 21.45 13 22C13 22.09 13.01 22.18 13.04 22.27L15.58 31.54C15.81 32.38 16.58 33 17.5 33H30.5C31.42 33 32.19 32.38 32.43 31.54L34.97 22.27L35 22C35 21.45 34.55 21 34 21ZM23.99 16.79L26.8 21H21.18L23.99 16.79ZM24 29C22.9 29 22 28.1 22 27C22 25.9 22.9 25 24 25C25.1 25 26 25.9 26 27C26 28.1 25.1 29 24 29Z" fill="#0C96C4"/>
</svg>
