<svg width="389" height="419" viewBox="0 0 389 419" fill="none" xmlns="http://www.w3.org/2000/svg">
<circle cx="195.153" cy="193.926" r="193.847" fill="url(#paint0_linear_810_5391)"/>
<path fill-rule="evenodd" clip-rule="evenodd" d="M198.102 418.666C293.09 418.666 370.097 413.002 370.097 406.019C370.097 399.036 293.095 393.373 198.102 393.373C103.11 393.373 26.1074 399.034 26.1074 406.019C26.1074 413.004 103.11 418.666 198.102 418.666Z" fill="#4B5D61" fill-opacity="0.1"/>
<path d="M350.985 384.483C349.749 388.652 344.039 391.428 343.27 396.523C343.014 398.636 342.152 400.63 340.788 402.264H323.015C323.194 401.285 323.973 400.233 326.282 399.727C331.221 398.646 333.08 392.662 332.777 387.105C332.669 384.679 332.684 382.249 332.822 379.824C332.977 376.642 333.239 374.144 333.239 374.144L343.733 371.68L344.834 373.098L345.891 374.461C345.891 374.461 352.218 380.321 350.985 384.483Z" fill="#30181C" stroke="#232021" stroke-width="1.16974" stroke-linecap="round" stroke-linejoin="round"/>
<path d="M268.221 402.268H232.26C233.449 400.993 235.06 400.192 236.794 400.012C242.33 399.115 251.909 395.905 254.047 388.824C254.116 388.594 254.179 388.363 254.232 388.132C255.927 380.572 268.274 390.45 268.274 390.45C268.274 390.45 268.311 390.753 268.369 391.265C268.585 393.394 269.061 399.169 268.221 402.269" fill="#30181C"/>
<path d="M268.221 402.268H232.26C233.449 400.993 235.06 400.192 236.794 400.012C242.33 399.115 251.909 395.905 254.047 388.824C254.116 388.594 254.179 388.363 254.232 388.132C255.927 380.572 268.274 390.45 268.274 390.45C268.274 390.45 268.311 390.753 268.369 391.265C268.585 393.394 269.061 399.169 268.221 402.269" stroke="#232021" stroke-width="1.16974" stroke-linecap="round" stroke-linejoin="round"/>
<path d="M238.268 201.943C238.268 201.943 240.14 225.335 242.346 253.453C245.345 291.649 248.94 338.572 249.295 347.453C249.914 362.887 252.383 387.574 252.383 387.574C252.383 387.574 258.243 393.439 269.976 390.968C269.976 390.968 280.427 355.725 283.417 318.438C283.462 317.824 283.507 317.21 283.556 316.593C286.329 278.632 290.646 198.703 290.646 198.703L238.268 201.943Z" fill="url(#paint1_linear_810_5391)"/>
<path d="M246.823 204.719C246.823 204.719 280.616 289.44 302.837 329.247C325.058 369.053 332.004 380.171 332.004 380.171C332.004 380.171 344.736 375.076 345.89 371.603C345.89 371.603 337.392 294.745 322.515 276.009C314.103 265.423 304.226 233.652 303.763 222.545C303.301 211.438 300.757 189.443 300.757 189.443L246.823 204.719Z" fill="url(#paint2_linear_810_5391)"/>
<path d="M264.158 73.9539C263.304 69.2869 262.786 64.5649 262.605 59.8239L279.753 46.0054C279.118 65.0061 291.293 74.1477 291.293 74.1477C291.293 74.1477 268.437 85.3896 255.235 81.2237C257.74 78.276 260.765 75.8132 264.159 73.9574" fill="url(#paint3_linear_810_5391)"/>
<path d="M282.431 49.5151C284.478 35.896 288.672 27.1926 274.83 24.3023C260.988 21.4119 257.024 24.2077 255.234 28.5871C254.112 32.1481 253.758 35.9066 254.196 39.6145C250.683 44.1392 256.863 61.7754 259.812 62.7235C262.761 63.6716 280.384 63.1329 282.431 49.5151Z" fill="url(#paint4_linear_810_5391)"/>
<path d="M277.542 40.5566C277.542 40.5566 272.849 50.4572 270.772 52.2253C268.696 53.9935 264.198 48.1574 264.198 48.1574H257.085C255.896 50.1901 255.383 52.5476 255.618 54.8908C256.08 58.6289 259.04 64.2331 259.04 64.2331C261.958 66.2295 265.526 67.0426 269.02 66.5076C274.597 65.4926 277.373 62.563 281.505 57.7558C283.327 55.6359 284.38 50.5379 283.762 48.8217C282.977 46.6465 280.532 46.5034 280.532 44.9637C277.542 48.1574 277.542 40.5566 277.542 40.5566Z" fill="#190C1A"/>
<path d="M264.787 52.2256C262.962 53.4381 260.588 53.4381 258.763 52.2256" stroke="#79554B" stroke-width="1.61472" stroke-linecap="round"/>
<path d="M255.709 30.581C255.709 30.581 250.427 31.273 252.561 25.5557C249.908 23.3804 249.422 18.6885 253.75 19.4555C253.173 16.7105 255.595 14.5168 257.946 17.0011C258.025 12.1247 262.345 12.3807 264.226 14.3576C264.226 11.3496 268.955 8.67954 273.263 12.7486C275.463 9.7268 280.44 9.78678 280.821 13.7648C285.088 10.6772 289.946 13.7832 289.388 18.2422C289.388 18.2422 295.441 19.8442 292.409 26.648C294.394 27.3838 294.47 33.3087 291.36 33.3087C293.751 34.9546 293.108 39.7964 290.381 39.2878C292.41 41.6845 291.807 43.9912 289.388 44.9635C291.36 47.05 289.273 51.2229 287.042 50.0788C287.456 52.8665 280.327 52.6323 282.003 48.3314C280.809 46.689 279.86 45.8701 280.148 44.9635C283.032 43.6833 283.422 37.4874 280.821 37.4874C278.22 37.4874 277.836 42.3719 276.775 40.8322C275.714 39.2924 273.512 33.8312 275.839 29.5233C274.656 30.6723 272.937 31.0785 271.364 30.581C269.996 32.9581 265.799 32.8197 264.527 31.5683C260.818 31.7862 257.332 31.4921 255.709 30.581Z" fill="#190C1A"/>
<path d="M291.842 33.5174C293.962 33.5174 295.681 31.799 295.682 29.6789C295.682 27.5584 293.963 25.8394 291.842 25.8394" stroke="#242021" stroke-width="0.807362" stroke-linecap="round"/>
<path d="M251.779 25.7438C250.451 26.2272 249.766 27.6959 250.249 29.0241C250.733 30.3524 252.201 31.0372 253.529 30.5538" stroke="#242021" stroke-width="0.807362" stroke-linecap="round"/>
<path d="M253.058 18.1986C246.785 19.1465 250.36 26.372 251.689 25.8884" stroke="#242021" stroke-width="0.807362" stroke-linecap="round"/>
<path d="M181.958 87.5822L177.314 84.7068C173.748 79.6748 166.896 78.261 161.629 81.4705C161.629 81.4705 157.714 83.9675 160.339 86.0598C162.964 88.152 162.264 86.9698 165.904 89.9985C169.544 93.0273 174.258 94.1103 177.301 92.4402L181.199 92.0711L181.952 87.5822" fill="#A16D3C"/>
<path d="M176.447 88.4793C177.643 84.7366 178.212 84.4067 178.212 84.4067C178.212 84.4067 215.766 88.8438 219.308 89.1056C222.85 89.3674 272.017 79.2373 272.017 79.2373L295.233 107.429C295.233 107.429 226.782 110.01 217.826 109.171C203.021 107.784 176.172 94.0005 176.172 94.0005C175.788 92.1666 175.883 90.265 176.446 88.4781" fill="#B6A68D"/>
<path d="M206.931 43.3646L124.165 30.2196C120.648 29.6662 117.346 32.0635 116.783 35.5793L113.12 58.6468C113.052 60.0046 113.086 61.3655 113.223 62.7182L116.205 63.1622C116.375 63.1996 116.547 63.2254 116.721 63.2395C117.286 63.2832 117.854 63.2045 118.386 63.0088C121.227 61.9812 124.291 61.7299 127.262 62.2811C136.004 63.9131 142.037 71.9733 141.139 80.8215C140.656 85.4801 138.278 89.735 134.564 92.588C130.849 95.441 126.125 96.641 121.499 95.9065C118.023 95.3611 114.802 93.749 112.283 91.293C111.847 90.8625 111.277 90.5936 110.668 90.5307L107.545 90.0624L103.658 118.205C103.393 119.872 103.802 121.576 104.793 122.941C105.785 124.307 107.279 125.223 108.946 125.487L132.59 129.243C133.612 129.402 134.477 130.08 134.877 131.033C135.276 131.987 135.153 133.079 134.551 133.919C133.015 136.069 132.002 138.547 131.59 141.157C130.773 146.337 132.38 151.605 135.95 155.447C139.519 159.288 144.656 161.278 149.882 160.843C155.659 160.43 162.182 155.586 164.276 150.185C165.747 146.476 165.882 142.37 164.659 138.572C164.349 137.616 164.56 136.568 165.215 135.806C165.869 135.044 166.873 134.677 167.865 134.839L191.654 138.617C195.124 139.168 198.383 136.803 198.935 133.334L212.092 50.4751C212.351 48.8474 211.952 47.1836 210.984 45.8499C210.016 44.5161 208.558 43.6217 206.93 43.3634" fill="#C1993A"/>
<path d="M161.212 149.725C162.684 146.015 162.82 141.91 161.597 138.111C161.288 137.155 161.499 136.107 162.153 135.345C162.808 134.583 163.812 134.216 164.804 134.378L188.593 138.156C190.259 138.421 191.962 138.013 193.327 137.022C194.692 136.031 195.607 134.538 195.871 132.873L209.031 50.0142C209.569 46.6248 207.258 43.4409 203.869 42.9025L121.102 29.7586C117.585 29.2052 114.283 31.6026 113.721 35.1183L110.058 58.1858C109.838 59.5725 110.366 60.9723 111.447 61.8682C112.528 62.764 114.001 63.0229 115.323 62.549C118.164 61.5214 121.228 61.2701 124.198 61.8213C132.941 63.4527 138.975 71.5119 138.079 80.3606C137.595 85.0195 135.217 89.2746 131.502 92.1276C127.788 94.9806 123.063 96.1804 118.437 95.4456C114.961 94.8993 111.741 93.2873 109.22 90.8321C108.493 90.1202 107.429 89.8737 106.463 90.1932C105.497 90.5127 104.789 91.3448 104.63 92.3499L100.593 117.741C100.042 121.212 102.408 124.472 105.878 125.024L129.522 128.779C130.543 128.94 131.408 129.617 131.808 130.571C132.207 131.524 132.084 132.616 131.483 133.456C129.945 135.605 128.931 138.083 128.522 140.694C127.703 145.876 129.311 151.146 132.883 154.989C136.454 158.832 141.594 160.82 146.822 160.382C152.599 159.969 159.122 155.125 161.213 149.725" fill="#FFE3A3"/>
<path d="M303.331 193.772C303.397 195.228 300.399 196.824 299.097 197.41C289.293 201.804 280.164 204.86 269.848 205.85C257.612 207.108 243.151 204.351 238.193 204.421C237.683 204.417 237.192 204.23 236.809 203.893C236.477 203.627 236.211 188.68 236.477 169.836C236.477 169.109 236.477 168.313 236.542 167.585V167.323C236.563 165.362 236.592 163.366 236.637 161.353C236.76 155.846 236.965 150.191 237.207 144.572C237.563 136.288 238.055 128.146 238.739 120.934C239.23 114.65 240.155 108.407 241.507 102.25C244.152 91.603 250.238 84.5904 255.791 79.4326L260.353 75.4027C265.148 76.457 270.159 75.8498 274.563 73.6807C279.789 71.1017 285.478 68.3233 286.399 68.9853C293.451 74.2551 298.197 86.2179 300.63 101.422C301.985 110.297 302.624 119.268 302.542 128.246C302.529 131.897 302.415 135.604 302.206 139.346C301.41 155.214 301.651 171.118 302.927 186.955C303.128 189.865 303.287 192.178 303.333 193.771" fill="#514846"/>
<path fill-rule="evenodd" clip-rule="evenodd" d="M259.905 75.2358C263.788 76.5299 271.557 77.1779 285.149 68.4399C286.12 67.469 284.178 65.5272 283.207 63.5854C278.353 68.4402 270.948 70.057 264.76 70.3813C262.331 70.5086 261.848 72.3231 259.905 75.2358Z" fill="#30181C"/>
<path d="M237.452 160.431C237.568 154.924 236.79 137.94 237.452 130.722C238.138 130.357 256.567 112.829 257.158 112.629C270.186 108.187 286.907 101.014 286.907 101.014C286.907 101.014 275.854 149.438 237.452 160.431Z" fill="#242021" fill-opacity="0.22"/>
<path d="M176.444 118.458C165.571 118.458 159.743 132.299 162.699 134.638C165.655 136.977 173.898 137.532 175.94 134.638C177.981 131.744 180.766 126.474 180.766 126.474L182.118 119.396L176.444 118.458Z" fill="url(#paint5_linear_810_5391)"/>
<path d="M177.782 122.28C177.966 118.107 180.19 117.666 180.19 117.666C180.19 117.666 223.153 114.824 226.859 114.106C230.565 113.387 264.785 85.0405 264.785 85.0405C264.785 85.0405 278.016 73.1365 287.288 77.1491C295.347 80.6369 297.87 87.5168 298.275 93.8454C298.729 101.394 294.516 108.451 287.656 111.632C272.29 118.81 241.555 132.9 234.556 134.115C218.978 136.821 178.935 128.149 178.935 128.149C178.105 126.307 177.71 124.299 177.782 122.28Z" fill="#B6A68D"/>
<path d="M52.1883 356.301C51.9882 356.107 51.7882 355.907 51.6006 355.695C49.4468 353.333 48.1927 350.288 48.058 347.095L47.6323 337.358C45.3063 321.446 31.2562 306.251 31.1856 306.179C2.6728 281.455 -7.48414 241.622 5.70838 206.263C6.4584 204.253 7.27355 202.283 8.15383 200.353V200.311C8.1895 196.205 15.4987 184.503 17.3254 184.518L25.3038 184.587C25.8638 184.592 26.3864 184.307 26.6845 183.833C26.9826 183.359 27.0134 182.764 26.7661 182.261C25.7754 180.264 25.5101 177.985 26.0156 175.814C26.9873 172.388 29.6614 169.708 33.0852 168.729C36.7021 167.871 40.4879 169.192 42.7861 172.114C45.0842 175.035 45.4762 179.026 43.7905 182.339C43.5267 182.853 43.5484 183.467 43.8477 183.961C44.147 184.455 44.6812 184.759 45.259 184.763L58.6345 184.88C59.5772 184.888 60.478 185.27 61.1387 185.943C61.7994 186.615 62.166 187.522 62.1577 188.465L61.7956 230.034C62.1197 232.346 62.8904 234.686 64.6792 234.686H113.674C116.74 234.686 117.812 232.558 118.184 230.926V217.625C118.184 217.063 117.893 216.54 117.414 216.245C116.935 215.95 116.337 215.925 115.835 216.178C113.841 217.189 111.558 217.475 109.377 216.986C105.935 216.041 103.226 213.384 102.216 209.961C101.322 206.341 102.612 202.532 105.522 200.201C108.432 197.871 112.431 197.443 115.768 199.106C116.285 199.365 116.9 199.337 117.392 199.033C117.885 198.728 118.184 198.19 118.184 197.612V184.198C118.184 182.228 119.781 180.632 121.75 180.632H136.152C136.72 180.634 137.24 180.952 137.501 181.457C137.762 181.962 137.72 182.57 137.392 183.035C134.675 186.895 135.184 192.161 138.59 195.429C141.997 198.697 147.279 198.987 151.023 196.112C154.767 193.238 155.85 188.06 153.573 183.925C153.194 183.236 153.207 182.397 153.608 181.72C154.009 181.042 154.738 180.627 155.525 180.628H160.15C162.97 180.628 172.224 194.278 172.224 199.297V199.382C173.273 201.614 174.235 203.901 175.109 206.242C188.303 241.601 178.146 281.436 149.633 306.162C149.561 306.232 135.508 321.427 133.185 337.339L132.798 347.082C132.663 350.276 131.409 353.32 129.255 355.682C129.068 355.896 128.867 356.096 128.668 356.289L52.1883 356.301Z" fill="#F5CD6E"/>
<path d="M94.051 412.678H86.7789C67.5695 412.676 51.9983 397.103 51.9983 377.893V356.261H128.835V377.893C128.835 397.104 113.262 412.678 94.051 412.678Z" fill="#514846"/>
<path d="M129.41 239.192L116.787 225.474L106.429 239.984L90.5471 207.195L74.8478 240.797L66.0763 225.474L53.5629 239.984" stroke="#C8E8FF" stroke-width="3.91611" stroke-linecap="round" stroke-linejoin="round"/>
<path d="M104.106 362.271L104.466 362.36C106.349 362.819 108.256 361.393 108.727 359.171L134.121 240.075C134.584 237.851 133.438 235.676 131.556 235.209L131.203 235.121C129.319 234.662 127.412 236.088 126.941 238.31L101.547 357.406C101.084 359.628 102.228 361.801 104.106 362.271Z" fill="#FFFEFD"/>
<path d="M79.9656 361.512C77.978 362.006 75.9607 360.508 75.4582 358.165L50.1337 239.463C49.6366 237.12 50.8394 234.822 52.824 234.322C54.8086 233.823 56.8281 235.326 57.3315 237.669L82.6498 356.366C83.1506 358.708 81.9505 361.009 79.9656 361.512Z" fill="#FFFEFD"/>
<path d="M52.962 364.738H127.816C130.164 364.738 132.068 362.835 132.068 360.486C132.068 358.138 130.164 356.234 127.816 356.234H52.962C50.6137 356.234 48.71 358.138 48.71 360.486C48.71 362.835 50.6137 364.738 52.962 364.738Z" fill="#B6A68E"/>
<path d="M52.962 381.816H127.816C130.164 381.816 132.068 379.913 132.068 377.564C132.068 375.216 130.164 373.312 127.816 373.312H52.962C50.6137 373.312 48.71 375.216 48.71 377.564C48.71 379.913 50.6137 381.816 52.962 381.816Z" fill="#B6A68E"/>
<path d="M57.3885 400.902H123.389C125.738 400.902 127.641 398.999 127.641 396.65C127.641 394.302 125.738 392.398 123.389 392.398H57.3885C55.0402 392.398 53.1365 394.302 53.1365 396.65C53.1365 398.999 55.0402 400.902 57.3885 400.902Z" fill="#B6A68E"/>
<defs>
<linearGradient id="paint0_linear_810_5391" x1="195.153" y1="0.0786133" x2="195.153" y2="387.773" gradientUnits="userSpaceOnUse">
<stop stop-color="#DAD3C8"/>
<stop offset="1" stop-color="white" stop-opacity="0"/>
</linearGradient>
<linearGradient id="paint1_linear_810_5391" x1="245.732" y1="295.769" x2="301.877" y2="295.769" gradientUnits="userSpaceOnUse">
<stop stop-color="#F0C26B"/>
<stop offset="1" stop-color="#653623"/>
</linearGradient>
<linearGradient id="paint2_linear_810_5391" x1="260.939" y1="285.43" x2="367.133" y2="285.43" gradientUnits="userSpaceOnUse">
<stop stop-color="#F0C26B"/>
<stop offset="1" stop-color="#653623"/>
</linearGradient>
<linearGradient id="paint3_linear_810_5391" x1="249.836" y1="75.1221" x2="275.082" y2="44.6858" gradientUnits="userSpaceOnUse">
<stop stop-color="#B3826E"/>
<stop offset="1" stop-color="#2D181B"/>
</linearGradient>
<linearGradient id="paint4_linear_810_5391" x1="253.109" y1="42.2258" x2="312.757" y2="36.5058" gradientUnits="userSpaceOnUse">
<stop stop-color="#B3826E"/>
<stop offset="1" stop-color="#2D181B"/>
</linearGradient>
<linearGradient id="paint5_linear_810_5391" x1="158.911" y1="133.077" x2="171.265" y2="116.473" gradientUnits="userSpaceOnUse">
<stop stop-color="#B3826E"/>
<stop offset="1" stop-color="#2D181B"/>
</linearGradient>
</defs>
</svg>
