<svg width="60" height="60" viewBox="0 0 60 60" fill="none" xmlns="http://www.w3.org/2000/svg">
<path fill-rule="evenodd" clip-rule="evenodd" d="M30 60C46.5685 60 60 46.5685 60 30C60 13.4315 46.5685 0 30 0C13.4315 0 0 13.4315 0 30C0 46.5685 13.4315 60 30 60Z" fill="#0C96C4" fill-opacity="0.1"/>
<path d="M25 17.5V21.25" stroke="#0C96C4" stroke-width="1.5" stroke-miterlimit="10" stroke-linecap="round" stroke-linejoin="round"/>
<path d="M35 17.5V21.25" stroke="#0C96C4" stroke-width="1.5" stroke-miterlimit="10" stroke-linecap="round" stroke-linejoin="round"/>
<path d="M23.75 31.25H33.75" stroke="#0C96C4" stroke-width="1.5" stroke-miterlimit="10" stroke-linecap="round" stroke-linejoin="round"/>
<path d="M23.75 36.25H30" stroke="#0C96C4" stroke-width="1.5" stroke-miterlimit="10" stroke-linecap="round" stroke-linejoin="round"/>
<path d="M35 19.375C39.1625 19.6 41.25 21.1875 41.25 27.0625V34.7875C41.25 39.9375 40 42.5125 33.75 42.5125H26.25C20 42.5125 18.75 39.9375 18.75 34.7875V27.0625C18.75 21.1875 20.8375 19.6125 25 19.375H35Z" stroke="#0C96C4" stroke-width="1.5" stroke-miterlimit="10" stroke-linecap="round" stroke-linejoin="round"/>
</svg>
