<svg width="55" height="55" viewBox="0 0 55 55" fill="none" xmlns="http://www.w3.org/2000/svg">
<path fill-rule="evenodd" clip-rule="evenodd" d="M27.5 55C42.6878 55 55 42.6878 55 27.5C55 12.3122 42.6878 0 27.5 0C12.3122 0 0 12.3122 0 27.5C0 42.6878 12.3122 55 27.5 55Z" fill="#0C96C4" fill-opacity="0.1"/>
<path d="M23.8398 29.9133C23.8398 31.5258 25.0773 32.8258 26.6148 32.8258H29.7523C31.0898 32.8258 32.1773 31.6883 32.1773 30.2883C32.1773 28.7633 31.5148 28.2258 30.5273 27.8758L25.4898 26.1258C24.5023 25.7758 23.8398 25.2383 23.8398 23.7133C23.8398 22.3133 24.9273 21.1758 26.2648 21.1758H29.4023C30.9398 21.1758 32.1773 22.4758 32.1773 24.0883" stroke="#0C96C4" stroke-width="1.5" stroke-linecap="round" stroke-linejoin="round"/>
<path d="M28 19.5V34.5" stroke="#0C96C4" stroke-width="1.5" stroke-linecap="round" stroke-linejoin="round"/>
<path d="M28 39.5C34.9036 39.5 40.5 33.9036 40.5 27C40.5 20.0964 34.9036 14.5 28 14.5C21.0964 14.5 15.5 20.0964 15.5 27C15.5 33.9036 21.0964 39.5 28 39.5Z" stroke="#0C96C4" stroke-width="1.5" stroke-linecap="round" stroke-linejoin="round"/>
</svg>
