<svg width="60" height="60" viewBox="0 0 60 60" fill="none" xmlns="http://www.w3.org/2000/svg">
<path fill-rule="evenodd" clip-rule="evenodd" d="M30 60C46.5685 60 60 46.5685 60 30C60 13.4315 46.5685 0 30 0C13.4315 0 0 13.4315 0 30C0 46.5685 13.4315 60 30 60Z" fill="#0C96C4" fill-opacity="0.1"/>
<path d="M30.3691 26.8809H35.6191" stroke="#0C96C4" stroke-width="1.5" stroke-linecap="round" stroke-linejoin="round"/>
<path d="M24.3809 26.8809L25.1309 27.6309L27.3809 25.3809" stroke="#0C96C4" stroke-width="1.5" stroke-linecap="round" stroke-linejoin="round"/>
<path d="M30.3691 33.8809H35.6191" stroke="#0C96C4" stroke-width="1.5" stroke-linecap="round" stroke-linejoin="round"/>
<path d="M24.3809 33.8809L25.1309 34.6309L27.3809 32.3809" stroke="#0C96C4" stroke-width="1.5" stroke-linecap="round" stroke-linejoin="round"/>
<path d="M27 40H33C38 40 40 38 40 33V27C40 22 38 20 33 20H27C22 20 20 22 20 27V33C20 38 22 40 27 40Z" stroke="#0C96C4" stroke-width="1.5" stroke-linecap="round" stroke-linejoin="round"/>
</svg>
