<svg width="48" height="49" viewBox="0 0 48 49" fill="none" xmlns="http://www.w3.org/2000/svg">
<path fill-rule="evenodd" clip-rule="evenodd" d="M24 48.1978C37.2548 48.1978 48 37.4526 48 24.1978C48 10.9429 37.2548 0.197754 24 0.197754C10.7452 0.197754 0 10.9429 0 24.1978C0 37.4526 10.7452 48.1978 24 48.1978Z" fill="#0C96C4" fill-opacity="0.1"/>
<path d="M23 16.6978V30.1978C23 31.2778 22.56 32.2677 21.86 32.9877L21.82 33.0278C21.73 33.1178 21.63 33.2078 21.54 33.2778C21.24 33.5378 20.9 33.7377 20.55 33.8777C20.44 33.9277 20.33 33.9678 20.22 34.0078C19.83 34.1378 19.41 34.1978 19 34.1978C18.73 34.1978 18.46 34.1678 18.2 34.1178C18.07 34.0878 17.94 34.0578 17.81 34.0178C17.65 33.9678 17.5 33.9177 17.35 33.8477C17.35 33.8377 17.35 33.8377 17.34 33.8477C17.06 33.7077 16.79 33.5478 16.54 33.3578L16.53 33.3477C16.4 33.2477 16.28 33.1478 16.17 33.0278C16.06 32.9078 15.95 32.7878 15.84 32.6578C15.65 32.4078 15.49 32.1378 15.35 31.8578C15.36 31.8478 15.36 31.8477 15.35 31.8477C15.35 31.8477 15.35 31.8378 15.34 31.8278C15.28 31.6878 15.23 31.5378 15.18 31.3878C15.14 31.2578 15.11 31.1278 15.08 30.9978C15.03 30.7378 15 30.4678 15 30.1978V16.6978C15 15.1978 16 14.1978 17.5 14.1978H20.5C22 14.1978 23 15.1978 23 16.6978Z" stroke="#0C96C4" stroke-width="2" stroke-linecap="round" stroke-linejoin="round"/>
<path d="M17.8102 34.0177C17.2102 33.8377 16.6402 33.5077 16.1702 33.0277C15.6902 32.5577 15.3602 31.9877 15.1802 31.3877C15.5702 32.6377 16.5602 33.6277 17.8102 34.0177Z" stroke="#0C96C4" stroke-width="2" stroke-linecap="round" stroke-linejoin="round"/>
<path d="M31.3699 23.4877L28.6599 26.1977L21.8599 32.9877C22.5599 32.2677 22.9999 31.2777 22.9999 30.1977V20.5377L25.7099 17.8277C26.7699 16.7677 28.1899 16.7677 29.2499 17.8277L31.3699 19.9477C32.4299 21.0077 32.4299 22.4277 31.3699 23.4877Z" stroke="#0C96C4" stroke-width="2" stroke-linecap="round" stroke-linejoin="round"/>
<path d="M19 31.1978C19.5523 31.1978 20 30.75 20 30.1978C20 29.6455 19.5523 29.1978 19 29.1978C18.4477 29.1978 18 29.6455 18 30.1978C18 30.75 18.4477 31.1978 19 31.1978Z" stroke="#0C96C4" stroke-width="2" stroke-linecap="round" stroke-linejoin="round"/>
</svg>
