<svg width="48" height="49" viewBox="0 0 48 49" fill="none" xmlns="http://www.w3.org/2000/svg">
<path fill-rule="evenodd" clip-rule="evenodd" d="M24 48.1978C37.2548 48.1978 48 37.4526 48 24.1978C48 10.9429 37.2548 0.197754 24 0.197754C10.7452 0.197754 0 10.9429 0 24.1978C0 37.4526 10.7452 48.1978 24 48.1978Z" fill="#0C96C4" fill-opacity="0.1"/>
<path d="M29 22.1978H31C33 22.1978 34 21.1978 34 19.1978V17.1978C34 15.1978 33 14.1978 31 14.1978H29C27 14.1978 26 15.1978 26 17.1978V19.1978C26 21.1978 27 22.1978 29 22.1978Z" stroke="#0C96C4" stroke-width="1.5" stroke-miterlimit="10" stroke-linecap="round" stroke-linejoin="round"/>
<path d="M17 34.1978H19C21 34.1978 22 33.1978 22 31.1978V29.1978C22 27.1978 21 26.1978 19 26.1978H17C15 26.1978 14 27.1978 14 29.1978V31.1978C14 33.1978 15 34.1978 17 34.1978Z" stroke="#0C96C4" stroke-width="1.5" stroke-miterlimit="10" stroke-linecap="round" stroke-linejoin="round"/>
<path d="M18 22.1978C20.2091 22.1978 22 20.4069 22 18.1978C22 15.9886 20.2091 14.1978 18 14.1978C15.7909 14.1978 14 15.9886 14 18.1978C14 20.4069 15.7909 22.1978 18 22.1978Z" stroke="#0C96C4" stroke-width="1.5" stroke-miterlimit="10" stroke-linecap="round" stroke-linejoin="round"/>
<path d="M30 34.1978C32.2091 34.1978 34 32.4069 34 30.1978C34 27.9886 32.2091 26.1978 30 26.1978C27.7909 26.1978 26 27.9886 26 30.1978C26 32.4069 27.7909 34.1978 30 34.1978Z" stroke="#0C96C4" stroke-width="1.5" stroke-miterlimit="10" stroke-linecap="round" stroke-linejoin="round"/>
</svg>
