<svg width="48" height="49" viewBox="0 0 48 49" fill="none" xmlns="http://www.w3.org/2000/svg">
<path fill-rule="evenodd" clip-rule="evenodd" d="M24 48.1978C37.2548 48.1978 48 37.4526 48 24.1978C48 10.9429 37.2548 0.197754 24 0.197754C10.7452 0.197754 0 10.9429 0 24.1978C0 37.4526 10.7452 48.1978 24 48.1978Z" fill="#0C96C4" fill-opacity="0.1"/>
<path d="M30 31.0577H29.24C28.44 31.0577 27.68 31.3677 27.12 31.9277L25.41 33.6177C24.63 34.3877 23.36 34.3877 22.58 33.6177L20.87 31.9277C20.31 31.3677 19.54 31.0577 18.75 31.0577H18C16.34 31.0577 15 29.7278 15 28.0878V17.1777C15 15.5377 16.34 14.2078 18 14.2078H30C31.66 14.2078 33 15.5377 33 17.1777V28.0878C33 29.7178 31.66 31.0577 30 31.0577Z" stroke="#0C96C4" stroke-width="2" stroke-miterlimit="10" stroke-linecap="round" stroke-linejoin="round"/>
<path d="M23.9999 22.1978C25.2868 22.1978 26.33 21.1546 26.33 19.8678C26.33 18.581 25.2868 17.5378 23.9999 17.5378C22.7131 17.5378 21.6699 18.581 21.6699 19.8678C21.6699 21.1546 22.7131 22.1978 23.9999 22.1978Z" stroke="#0C96C4" stroke-width="2" stroke-linecap="round" stroke-linejoin="round"/>
<path d="M28 27.8578C28 26.0578 26.21 24.5979 24 24.5979C21.79 24.5979 20 26.0578 20 27.8578" stroke="#0C96C4" stroke-width="2" stroke-linecap="round" stroke-linejoin="round"/>
</svg>
