<svg width="49" height="48" viewBox="0 0 49 48" fill="none" xmlns="http://www.w3.org/2000/svg">
<path fill-rule="evenodd" clip-rule="evenodd" d="M24.2812 48C37.5361 48 48.2812 37.2548 48.2812 24C48.2812 10.7452 37.5361 0 24.2812 0C11.0264 0 0.28125 10.7452 0.28125 24C0.28125 37.2548 11.0264 48 24.2812 48Z" fill="#0C96C4" fill-opacity="0.1"/>
<path fill-rule="evenodd" clip-rule="evenodd" d="M22.2813 31V26H26.2813V31C26.2813 31.55 26.7313 32 27.2813 32H30.2813C30.8313 32 31.2813 31.55 31.2813 31V24H32.9813C33.4413 24 33.6613 23.43 33.3113 23.13L24.9513 15.6C24.5713 15.26 23.9913 15.26 23.6113 15.6L15.2513 23.13C14.9113 23.43 15.1213 24 15.5813 24H17.2813V31C17.2813 31.55 17.7313 32 18.2813 32H21.2813C21.8313 32 22.2813 31.55 22.2813 31Z" fill="#0C96C4"/>
</svg>
