<svg width="49" height="48" viewBox="0 0 49 48" fill="none" xmlns="http://www.w3.org/2000/svg">
<path fill-rule="evenodd" clip-rule="evenodd" d="M24.1875 48C37.4423 48 48.1875 37.2548 48.1875 24C48.1875 10.7452 37.4423 0 24.1875 0C10.9327 0 0.1875 10.7452 0.1875 24C0.1875 37.2548 10.9327 48 24.1875 48Z" fill="#0C96C4" fill-opacity="0.1"/>
<path fill-rule="evenodd" clip-rule="evenodd" d="M32.1875 16H16.1875C15.0875 16 14.1975 16.9 14.1975 18L14.1875 30C14.1875 31.1 15.0875 32 16.1875 32H32.1875C33.2875 32 34.1875 31.1 34.1875 30V18C34.1875 16.9 33.2875 16 32.1875 16ZM31.7875 20.25L24.7175 24.67C24.3975 24.87 23.9775 24.87 23.6575 24.67L16.5875 20.25C16.3375 20.09 16.1875 19.82 16.1875 19.53C16.1875 18.86 16.9175 18.46 17.4875 18.81L24.1875 23L30.8875 18.81C31.4575 18.46 32.1875 18.86 32.1875 19.53C32.1875 19.82 32.0375 20.09 31.7875 20.25Z" fill="#0C96C4"/>
</svg>
