<svg width="48" height="49" viewBox="0 0 48 49" fill="none" xmlns="http://www.w3.org/2000/svg">
<path fill-rule="evenodd" clip-rule="evenodd" d="M24 48.1978C37.2548 48.1978 48 37.4526 48 24.1978C48 10.9429 37.2548 0.197754 24 0.197754C10.7452 0.197754 0 10.9429 0 24.1978C0 37.4526 10.7452 48.1978 24 48.1978Z" fill="#0C96C4" fill-opacity="0.1"/>
<path d="M32 19.1978V29.1978C32 33.1978 31 34.1978 27 34.1978H21C17 34.1978 16 33.1978 16 29.1978V19.1978C16 15.1978 17 14.1978 21 14.1978H27C31 14.1978 32 15.1978 32 19.1978Z" stroke="#0C96C4" stroke-width="2" stroke-linecap="round" stroke-linejoin="round"/>
<path d="M26 17.6978H22" stroke="#0C96C4" stroke-width="2" stroke-linecap="round" stroke-linejoin="round"/>
<path d="M24.0002 31.2978C24.8562 31.2978 25.5502 30.6038 25.5502 29.7478C25.5502 28.8917 24.8562 28.1978 24.0002 28.1978C23.1442 28.1978 22.4502 28.8917 22.4502 29.7478C22.4502 30.6038 23.1442 31.2978 24.0002 31.2978Z" stroke="#0C96C4" stroke-width="2" stroke-linecap="round" stroke-linejoin="round"/>
</svg>
