<svg width="49" height="48" viewBox="0 0 49 48" fill="none" xmlns="http://www.w3.org/2000/svg">
<path fill-rule="evenodd" clip-rule="evenodd" d="M24.1875 48C37.4423 48 48.1875 37.2548 48.1875 24C48.1875 10.7452 37.4423 0 24.1875 0C10.9327 0 0.1875 10.7452 0.1875 24C0.1875 37.2548 10.9327 48 24.1875 48Z" fill="#0C96C4" fill-opacity="0.1"/>
<path fill-rule="evenodd" clip-rule="evenodd" d="M28.6875 24C30.0675 24 31.1775 22.88 31.1775 21.5C31.1775 20.12 30.0675 19 28.6875 19C27.3075 19 26.1875 20.12 26.1875 21.5C26.1875 22.88 27.3075 24 28.6875 24ZM21.1875 23C22.8475 23 24.1775 21.66 24.1775 20C24.1775 18.34 22.8475 17 21.1875 17C19.5275 17 18.1875 18.34 18.1875 20C18.1875 21.66 19.5275 23 21.1875 23ZM28.6875 26C26.8575 26 23.1875 26.92 23.1875 28.75V30C23.1875 30.55 23.6375 31 24.1875 31H33.1875C33.7375 31 34.1875 30.55 34.1875 30V28.75C34.1875 26.92 30.5175 26 28.6875 26ZM21.1875 25C18.8575 25 14.1875 26.17 14.1875 28.5V30C14.1875 30.55 14.6375 31 15.1875 31H21.1875V28.75C21.1875 27.9 21.5175 26.41 23.5575 25.28C22.6875 25.1 21.8475 25 21.1875 25Z" fill="#0C96C4"/>
</svg>
