<svg width="49" height="48" viewBox="0 0 49 48" fill="none" xmlns="http://www.w3.org/2000/svg">
<path fill-rule="evenodd" clip-rule="evenodd" d="M24.0938 48C37.3486 48 48.0938 37.2548 48.0938 24C48.0938 10.7452 37.3486 0 24.0938 0C10.8389 0 0.09375 10.7452 0.09375 24C0.09375 37.2548 10.8389 48 24.0938 48Z" fill="#0C96C4" fill-opacity="0.1"/>
<path fill-rule="evenodd" clip-rule="evenodd" d="M32.5938 23H31.0938V19C31.0938 17.9 30.1938 17 29.0938 17H25.0938V15.5C25.0938 14.12 23.9738 13 22.5938 13C21.2137 13 20.0938 14.12 20.0938 15.5V17H16.0938C14.9937 17 14.1037 17.9 14.1037 19V22.8H15.5938C17.0838 22.8 18.2937 24.01 18.2937 25.5C18.2937 26.99 17.0838 28.2 15.5938 28.2H14.0938V32C14.0938 33.1 14.9937 34 16.0938 34H19.8938V32.5C19.8938 31.01 21.1038 29.8 22.5938 29.8C24.0837 29.8 25.2937 31.01 25.2937 32.5V34H29.0938C30.1938 34 31.0938 33.1 31.0938 32V28H32.5938C33.9737 28 35.0938 26.88 35.0938 25.5C35.0938 24.12 33.9737 23 32.5938 23Z" fill="#0C96C4"/>
</svg>
