<svg width="48" height="49" viewBox="0 0 48 49" fill="none" xmlns="http://www.w3.org/2000/svg">
<path fill-rule="evenodd" clip-rule="evenodd" d="M24 48.1978C37.2548 48.1978 48 37.4526 48 24.1978C48 10.9429 37.2548 0.197754 24 0.197754C10.7452 0.197754 0 10.9429 0 24.1978C0 37.4526 10.7452 48.1978 24 48.1978Z" fill="#0C96C4" fill-opacity="0.1"/>
<path d="M22.4902 14.4278L17.5002 16.3078C16.3502 16.7378 15.4102 18.0978 15.4102 19.3178V26.7478C15.4102 27.9278 16.1902 29.4778 17.1402 30.1878L21.4402 33.3978C22.8502 34.4578 25.1702 34.4578 26.5802 33.3978L30.8802 30.1878C31.8302 29.4778 32.6102 27.9278 32.6102 26.7478V19.3178C32.6102 18.0878 31.6702 16.7278 30.5202 16.2978L25.5302 14.4278C24.6802 14.1178 23.3202 14.1178 22.4902 14.4278Z" stroke="#0C96C4" stroke-width="2" stroke-linecap="round" stroke-linejoin="round"/>
<path d="M24 24.6978C25.1046 24.6978 26 23.8023 26 22.6978C26 21.5932 25.1046 20.6978 24 20.6978C22.8954 20.6978 22 21.5932 22 22.6978C22 23.8023 22.8954 24.6978 24 24.6978Z" stroke="#0C96C4" stroke-width="1.5" stroke-miterlimit="10" stroke-linecap="round" stroke-linejoin="round"/>
<path d="M24 24.6978V27.6978" stroke="#0C96C4" stroke-width="1.5" stroke-miterlimit="10" stroke-linecap="round" stroke-linejoin="round"/>
</svg>
