<svg width="48" height="49" viewBox="0 0 48 49" fill="none" xmlns="http://www.w3.org/2000/svg">
<path fill-rule="evenodd" clip-rule="evenodd" d="M24 48.1978C37.2548 48.1978 48 37.4526 48 24.1978C48 10.9429 37.2548 0.197754 24 0.197754C10.7452 0.197754 0 10.9429 0 24.1978C0 37.4526 10.7452 48.1978 24 48.1978Z" fill="#0C96C4" fill-opacity="0.1"/>
<path d="M30.0001 19.3578C29.9401 19.3478 29.8701 19.3478 29.8101 19.3578C28.4301 19.3078 27.3301 18.1778 27.3301 16.7778C27.3301 15.3478 28.4801 14.1978 29.9101 14.1978C31.3401 14.1978 32.4901 15.3578 32.4901 16.7778C32.4801 18.1778 31.3801 19.3078 30.0001 19.3578Z" stroke="#0C96C4" stroke-width="1.5" stroke-linecap="round" stroke-linejoin="round"/>
<path d="M28.9699 26.6377C30.3399 26.8677 31.8499 26.6277 32.9099 25.9177C34.3199 24.9777 34.3199 23.4377 32.9099 22.4977C31.8399 21.7877 30.3099 21.5477 28.9399 21.7877" stroke="#0C96C4" stroke-width="1.5" stroke-linecap="round" stroke-linejoin="round"/>
<path d="M17.97 19.3578C18.03 19.3478 18.1 19.3478 18.16 19.3578C19.54 19.3078 20.64 18.1778 20.64 16.7778C20.64 15.3478 19.49 14.1978 18.06 14.1978C16.63 14.1978 15.48 15.3578 15.48 16.7778C15.49 18.1778 16.59 19.3078 17.97 19.3578Z" stroke="#0C96C4" stroke-width="1.5" stroke-linecap="round" stroke-linejoin="round"/>
<path d="M18.9999 26.6377C17.6299 26.8677 16.1199 26.6277 15.0599 25.9177C13.6499 24.9777 13.6499 23.4377 15.0599 22.4977C16.1299 21.7877 17.6599 21.5477 19.0299 21.7877" stroke="#0C96C4" stroke-width="1.5" stroke-linecap="round" stroke-linejoin="round"/>
<path d="M24.0001 26.8277C23.9401 26.8177 23.8701 26.8177 23.8101 26.8277C22.4301 26.7777 21.3301 25.6477 21.3301 24.2477C21.3301 22.8177 22.4801 21.6677 23.9101 21.6677C25.3401 21.6677 26.4901 22.8277 26.4901 24.2477C26.4801 25.6477 25.3801 26.7877 24.0001 26.8277Z" stroke="#0C96C4" stroke-width="1.5" stroke-linecap="round" stroke-linejoin="round"/>
<path d="M21.0902 29.9776C19.6802 30.9176 19.6802 32.4576 21.0902 33.3976C22.6902 34.4676 25.3102 34.4676 26.9102 33.3976C28.3202 32.4576 28.3202 30.9176 26.9102 29.9776C25.3202 28.9176 22.6902 28.9176 21.0902 29.9776Z" stroke="#0C96C4" stroke-width="1.5" stroke-linecap="round" stroke-linejoin="round"/>
</svg>
