<svg width="142" height="157" viewBox="0 0 142 157" fill="none" xmlns="http://www.w3.org/2000/svg">
<path d="M141.343 49.6029V106.9C141.343 107.812 141.343 108.572 141.191 109.484C140.432 116.019 136.632 121.795 130.857 125.138L81.3104 153.711C76.599 156.446 70.9757 157.206 65.8083 155.839C63.8325 155.383 62.0087 154.623 60.3369 153.711L10.6387 124.986C6.83914 122.858 3.95148 119.667 2.12769 115.867C0.75985 113.132 -6.10352e-05 109.94 -6.10352e-05 106.748V49.6029C-6.10352e-05 46.5633 0.607868 43.6756 1.82373 40.9399C3.64751 36.9884 6.53518 33.6448 10.4867 31.365L60.1849 2.79238C65.0483 0.0567015 70.5197 -0.70321 75.8391 0.664631C77.6629 1.12058 79.4867 1.88049 81.3104 2.79238L130.857 31.365C135.264 33.9487 138.456 37.9003 140.128 42.6117C141.039 44.7395 141.343 47.1712 141.343 49.6029Z" fill="#EFEFEF"/>
<g opacity="0.462453">
<path d="M70.6717 21.8433C101.875 21.8433 127.209 47.1777 127.209 78.3807C127.209 109.584 101.875 134.918 70.6717 134.918C39.4688 134.918 14.1343 109.584 14.1343 78.3807C14.1343 47.1777 39.4688 21.8433 70.6717 21.8433Z" fill="#C7F1E0"/>
<path d="M70.6717 21.8433C101.875 21.8433 127.209 47.1777 127.209 78.3807C127.209 109.584 101.875 134.918 70.6717 134.918C39.4687 134.918 14.1343 109.584 14.1343 78.3807C14.1343 47.1777 39.4687 21.8433 70.6717 21.8433Z" stroke="white" stroke-width="0.958261"/>
</g>
<path d="M70.6721 34.729C94.9392 34.729 114.642 54.432 114.642 78.699C114.642 102.966 94.9392 122.669 70.6721 122.669C46.4051 122.669 26.7021 102.966 26.7021 78.699C26.7021 54.432 46.4051 34.729 70.6721 34.729Z" fill="#33D594"/>
<path d="M50.1777 80.4728L62.9713 93.0179L88.8067 66.313" stroke="white" stroke-width="7.45254" stroke-linecap="round" stroke-linejoin="round"/>
</svg>
