<svg width="24" height="25" viewBox="0 0 24 25" fill="none" xmlns="http://www.w3.org/2000/svg">
<path d="M12 9V3.5" stroke="#0C96C4" stroke-width="1.5" stroke-linecap="round" stroke-linejoin="round"/>
<path d="M12 21.5V16" stroke="#0C96C4" stroke-width="1.5" stroke-linecap="round" stroke-linejoin="round"/>
<path d="M10 3.5H14" stroke="#0C96C4" stroke-width="1.5" stroke-linecap="round" stroke-linejoin="round"/>
<path d="M10 21.5H14" stroke="#0C96C4" stroke-width="1.5" stroke-linecap="round" stroke-linejoin="round"/>
<path d="M8.96996 10.75L4.20996 8" stroke="#0C96C4" stroke-width="1.5" stroke-linecap="round" stroke-linejoin="round"/>
<path d="M19.7898 17L15.0298 14.25" stroke="#0C96C4" stroke-width="1.5" stroke-linecap="round" stroke-linejoin="round"/>
<path d="M3.20996 9.73001L5.20996 6.27002" stroke="#0C96C4" stroke-width="1.5" stroke-linecap="round" stroke-linejoin="round"/>
<path d="M18.79 18.73L20.79 15.27" stroke="#0C96C4" stroke-width="1.5" stroke-linecap="round" stroke-linejoin="round"/>
<path d="M15.5 12.5C15.5 13.14 15.33 13.73 15.03 14.25C14.42 15.3 13.29 16 12 16C10.71 16 9.58 15.3 8.97 14.25C8.67 13.73 8.5 13.14 8.5 12.5C8.5 11.86 8.67 11.27 8.97 10.75C9.58 9.7 10.71 9 12 9C13.29 9 14.42 9.7 15.03 10.75C15.33 11.27 15.5 11.86 15.5 12.5Z" stroke="#0C96C4" stroke-width="1.5" stroke-linecap="round" stroke-linejoin="round"/>
<path d="M19.7898 8L15.0298 10.75" stroke="#0C96C4" stroke-width="1.5" stroke-linecap="round" stroke-linejoin="round"/>
<path d="M8.96996 14.25L4.20996 17" stroke="#0C96C4" stroke-width="1.5" stroke-linecap="round" stroke-linejoin="round"/>
<path d="M20.79 9.73001L18.79 6.27002" stroke="#0C96C4" stroke-width="1.5" stroke-linecap="round" stroke-linejoin="round"/>
<path d="M5.20996 18.73L3.20996 15.27" stroke="#0C96C4" stroke-width="1.5" stroke-linecap="round" stroke-linejoin="round"/>
</svg>
